<?xml version="1.0" encoding="utf-8"?>
<!-- Generator: Adobe Illustrator 20.1.0, SVG Export Plug-In . SVG Version: 6.00 Build 0)  -->
<!DOCTYPE svg PUBLIC "-//W3C//DTD SVG 1.1//EN" "http://www.w3.org/Graphics/SVG/1.1/DTD/svg11.dtd">
<svg version="1.1" id="Laag_1" xmlns="http://www.w3.org/2000/svg" xmlns:xlink="http://www.w3.org/1999/xlink" x="0px" y="0px"
	 viewBox="0 0 841.9 595.3" style="enable-background:new 0 0 841.9 595.3;" xml:space="preserve">
<style type="text/css">
	.st0{fill:none;stroke:#E20613;stroke-width:24;stroke-miterlimit:10;}
	.st1{fill:#1D1D1B;}
	.st2{fill:#E84E1B;}
	.st3{fill:#FFFFFF;}
	.st4{fill:#EB6B56;}
</style>
<g id="u5r1lI.tif">
	<g>
		<path d="M-93.7,189.4c-0.1,1.2-0.3,2.4-0.3,3.5c-0.4,23.3-7.2,44.6-19.3,64.4c-6.8,11.1-14.8,21.1-23.6,30.6
			c-10.6,11.4-22.1,21.9-33.7,32.2c-12,10.7-24.1,21.3-36,32.2c-14.1,12.8-27.4,26.4-39.5,41c-7.9,9.6-15.1,19.8-21.9,30.2
			c-1.4,2.1-2.8,4.3-4.2,6.4c-0.1,0.2-0.3,0.3-0.5,0.6c-0.4-0.5-0.7-0.9-1-1.4c-5.6-7.8-11-15.8-16.8-23.4
			c-11.1-14.7-23.8-28.1-37-40.8c-13-12.5-26.6-24.2-40.2-36c-10.8-9.4-21.5-18.8-31.7-28.8c-9.6-9.4-18.6-19.4-26.5-30.4
			c-10.3-14.4-17.9-30.1-22.1-47.4c-1.5-6.2-2.6-12.5-3.2-18.9c-0.3-4.1-0.7-8.2-0.8-12.3c-0.4-17,3.3-33.2,11.4-48.2
			c13-24,32.4-40.7,58.3-49.6c6.7-2.3,13.6-3.8,20.7-4.4c1.5-0.1,3-0.2,4.5-0.3c0.7-0.1,1.5-0.2,2.2-0.3c1.6,0,3.2,0,4.8,0
			c0.8,0.1,1.6,0.3,2.4,0.3c5.6,0.2,11,1,16.4,2.3c23.3,5.6,42.5,18,57.4,36.7c0.3,0.4,0.6,0.8,1.1,1.3c0.6-0.7,1.1-1.3,1.6-1.9
			c19.3-23.1,43.6-36.5,73.9-38.4c0.6,0,1.2-0.2,1.7-0.3c1.7,0,3.4,0,5.1,0c0.6,0.1,1.3,0.3,1.9,0.3c2.4,0.2,4.9,0.3,7.3,0.6
			c6.8,0.8,13.4,2.4,19.7,4.7c23.7,8.7,41.9,24,54.7,45.8c8,13.7,12.6,28.5,13,44.5c0,0.8,0.2,1.7,0.3,2.5
			C-93.7,187.6-93.7,188.5-93.7,189.4z M-272.9,176.8c-0.4-0.7-0.6-1.2-0.9-1.7c-3-6.5-6.1-13-9.1-19.6c-5.5-11.9-13.3-22.1-23.8-30
			c-13.1-9.8-28-14.3-44.2-14.7c-7.6-0.2-15.2,0.6-22.6,2.6c-18.8,5-33.6,15.4-44.2,31.8c-8.2,12.7-11.8,26.8-12,41.8
			c-0.1,5.5,0.3,11.1,1.1,16.6c1.7,12.6,5.6,24.5,11.5,35.7c4.8,9.1,10.7,17.4,17.3,25.2c8.9,10.6,18.8,20.3,29.1,29.6
			c12.9,11.6,26,23.1,38.9,34.8c13,11.7,25.5,23.9,37.2,36.8c7.1,7.8,13.9,15.9,20.4,24.2c0.3,0.4,0.7,0.9,1.2,1.4
			c0.5-0.7,0.9-1.1,1.2-1.6c4.3-5.5,8.6-11.1,13-16.4c13-15.6,27.3-30.1,42.3-43.8c11-10.1,22.2-20,33.3-30
			c10.4-9.3,20.6-18.8,30.1-29c7.9-8.6,15.3-17.6,21.4-27.6c9.6-15.8,14.9-32.8,15.6-51.3c0.3-7.5-0.3-15-2-22.3
			c-3.9-16.8-12.4-30.9-25.9-41.7c-13.8-11.1-29.9-16.2-47.5-16.6c-5-0.1-9.9,0.3-14.8,1c-10,1.6-19.3,5-27.9,10.4
			c-12.7,8.1-22,19.2-28.4,32.7c-3.2,6.7-6.3,13.4-9.4,20.1C-272.3,175.5-272.6,176-272.9,176.8z"/>
	</g>
</g>
<rect x="-372.9" y="210" transform="matrix(0.7071 -0.7071 0.7071 0.7071 -299.1474 -102.1528)" class="st0" width="200" height="200"/>
<g>
	<path d="M1226-125.8c-0.4-16-5-30.8-13-44.5c-12.7-21.8-31-37.1-54.7-45.8c-6.4-2.3-13-3.9-19.7-4.7c-2.4-0.3-4.9-0.4-7.3-0.6
		c-0.6-0.1-1.3-0.2-1.9-0.3c-1.7,0-3.4,0-5.1,0c-0.6,0.1-1.2,0.3-1.7,0.3c-30.3,1.9-54.6,15.2-73.9,38.4c-0.5,0.6-1,1.2-1.6,1.9
		c-0.4-0.5-0.7-0.9-1.1-1.3c-15-18.7-34.1-31.1-57.4-36.7c-5.4-1.3-10.9-2.1-16.4-2.3c-0.8,0-1.6-0.2-2.4-0.3c-1.6,0-3.2,0-4.8,0
		c-0.7,0.1-1.5,0.3-2.2,0.3c-1.5,0.1-3,0.2-4.5,0.3c-7.1,0.6-14,2.1-20.7,4.4c-25.9,9-45.2,25.6-58.3,49.6
		c-8.1,15-11.8,31.1-11.4,48.2c0.1,4.1,0.5,8.2,0.8,12.3c0.5,6.4,1.7,12.7,3.2,18.9c4.2,17.3,11.8,32.9,22.1,47.4
		c4.8,6.8,10.2,13.2,15.8,19.3L926.7-38c-2.3-2.5-4.5-5-6.6-7.5c-6.6-7.8-12.5-16.1-17.3-25.2c-5.9-11.2-9.8-23.1-11.5-35.7
		c-0.7-5.5-1.1-11-1.1-16.6c0.2-15,3.9-29.1,12-41.8c10.5-16.4,25.4-26.8,44.2-31.8c7.4-2,14.9-2.8,22.6-2.6
		c16.2,0.4,31.1,4.9,44.2,14.7c10.6,7.9,18.3,18.1,23.8,30c0.7,1.4,1.3,2.8,2,4.2l8.1-8.1l8,8c0.7-1.6,1.5-3.1,2.2-4.7
		c6.4-13.5,15.7-24.7,28.4-32.7c8.6-5.4,17.9-8.8,27.9-10.4c4.9-0.8,9.8-1.2,14.8-1c17.6,0.4,33.6,5.6,47.5,16.6
		c13.5,10.8,22,24.9,25.9,41.7c1.7,7.3,2.3,14.8,2,22.3c-0.6,18.5-6,35.5-15.6,51.3c-6.1,10-13.4,19-21.4,27.6
		c-0.2,0.2-0.3,0.4-0.5,0.5l16.8,16.8c8.7-9.4,16.8-19.4,23.5-30.4c12.1-19.8,18.9-41.1,19.3-64.4c0-1.2,0.2-2.4,0.3-3.5
		c0-0.9,0-1.8,0-2.7C1226.2-124.1,1226-125,1226-125.8z"/>
	<path d="M1103.4,19.5c-15,13.7-29.2,28.2-42.3,43.8c-4.5,5.4-8.7,11-13,16.4c-0.4,0.5-0.7,0.9-1.2,1.6c-0.5-0.5-0.9-0.9-1.2-1.4
		c-6.5-8.4-13.3-16.4-20.4-24.2c-11.7-12.9-24.2-25.1-37.2-36.8c-12.9-11.6-26-23.1-38.9-34.8c-1.9-1.7-3.7-3.4-5.5-5.1l-17,17
		c8.3,7.8,16.9,15.4,25.5,22.9c13.6,11.8,27.2,23.5,40.2,36c13.3,12.8,25.9,26.1,37,40.8c5.8,7.7,11.2,15.6,16.8,23.4
		c0.3,0.4,0.6,0.9,1,1.4c0.2-0.3,0.4-0.4,0.5-0.6c1.4-2.1,2.8-4.2,4.2-6.4c6.8-10.4,14-20.6,21.9-30.2c12.1-14.7,25.4-28.2,39.5-41
		c11.9-10.8,24-21.5,36-32.2c5.7-5.1,11.3-10.2,16.9-15.4l-16.9-16.9c-4.2,3.9-8.4,7.7-12.6,11.6C1125.6-0.6,1114.4,9.3,1103.4,19.5
		z"/>
	<path class="st1" d="M1047-133.2c0.4-0.7,0.6-1.2,0.9-1.7c2.4-5.1,4.8-10.3,7.2-15.4l-8-8l-8.1,8.1c2.4,5.1,4.8,10.2,7.1,15.3
		C1046.4-134.5,1046.7-134,1047-133.2z"/>
</g>
<path class="st2" d="M1204.2,652.5H1173h-9.8c-7.8,7.9-16,15.3-23.2,21.8v0c-3.5,3.2-7,6.3-10.5,9.5c-7.5,6.7-15.2,13.7-22.8,20.6
	c-16.8,15.4-30.8,30-42.9,44.5c-3.1,3.7-6.1,7.5-9,11.2c-5.1-6.4-10.6-12.8-16.3-19.1c-11.2-12.3-23.5-24.5-37.7-37.3
	c-6.4-5.8-13-11.6-19.4-17.3c-6.4-5.7-13.1-11.6-19.6-17.5c-6.6-6-12.2-11.3-17.3-16.5H935h-30.9h-8.7l3.1,4.2
	c6.9,9.2,15.1,18.5,25.1,28.4c10,9.8,20.4,19,32,29.1l4.5,3.9c11.8,10.3,24,20.9,35.4,31.8c15.1,14.5,26.6,27.2,36.3,40
	c3.9,5.2,7.7,10.6,11.4,15.9c1.7,2.5,3.5,4.9,5.2,7.4c0.2,0.3,0.4,0.6,0.7,0.9l5.5,7.6l5.8-6.7l0.1-0.1c0.2-0.2,0.6-0.6,0.9-1.2
	l1-1.6c1.1-1.6,2.2-3.2,3.2-4.9c7.4-11.5,14.4-21.1,21.4-29.6c11.2-13.6,23.9-26.7,38.8-40.3c8.8-8,17.8-16,26.5-23.8
	c3.1-2.8,6.3-5.6,9.4-8.4c13.1-11.6,23.9-21.6,34.2-32.7c5.1-5.4,9.5-10.7,13.6-16l3.3-4.3H1204.2z"/>
<path class="st2" d="M1241.2,565.9c0-0.3-0.1-0.7-0.1-1c0-0.3-0.1-0.7-0.1-0.8c-0.4-16.6-5.1-32.7-13.9-47.9
	c-13.6-23.2-33.2-39.6-58.3-48.8c-7-2.6-14.2-4.3-21.4-5.1c-1.6-0.2-3.2-0.3-4.7-0.4c-0.9-0.1-1.8-0.1-2.7-0.2
	c-0.2,0-0.4-0.1-0.6-0.1c-0.2,0-0.5-0.1-0.7-0.1l-0.6-0.1h-6.3l-0.6,0.1c-0.3,0-0.5,0.1-0.8,0.2c-0.1,0-0.2,0-0.3,0.1
	c-29.4,1.8-54.5,14.1-74.9,36.4c-15.3-17.1-34.4-28.5-56.9-34c-6.1-1.5-12.1-2.3-17.8-2.5c-0.2,0-0.4-0.1-0.6-0.1
	c-0.3-0.1-0.6-0.1-1-0.2l-0.5-0.1h-5.8l-0.5,0.1c-0.3,0-0.5,0.1-0.8,0.1c-0.3,0.1-0.6,0.1-0.9,0.1c-0.7,0.1-1.4,0.1-2,0.1
	c-0.8,0-1.6,0.1-2.4,0.2c-7.7,0.7-15.2,2.3-22.4,4.8c-27.3,9.5-48.2,27.3-62.1,52.9c-8.6,15.8-12.7,33.2-12.2,51.7
	c0.1,3.9,0.4,7.8,0.7,11.6l0.1,1.1c0.5,6.3,1.6,12.8,3.4,20c0.8,3.3,1.7,6.5,2.8,9.7h7.4h7.4h9.7h7.6h7.8
	c-4.9-9.9-8.1-20.3-9.5-30.9c-0.7-5.6-1.1-10.7-1-15.6c0.2-14.5,3.8-27,10.9-38.1c9.5-14.8,22.6-24.2,40.1-28.8
	c6.6-1.7,13.5-2.5,20.6-2.4c15.5,0.4,28.6,4.7,40.1,13.3c9.3,6.9,16.4,15.9,21.7,27.3c3,6.5,6.1,13,9.1,19.6
	c0.2,0.4,0.4,0.8,0.6,1.2l6.6,13.2l6.6-13.2c0.2-0.5,0.4-0.8,0.6-1.2c1-2.2,2.1-4.5,3.1-6.7c2.1-4.5,4.2-8.9,6.3-13.4
	c6.2-13,14.6-22.7,25.8-29.8c7.6-4.8,16-7.9,25.2-9.4c4.8-0.8,9.2-1.1,13.5-1c17,0.4,31.1,5.4,43.3,15.1
	c12.1,9.7,19.8,22.1,23.5,37.9c1.5,6.5,2.1,13.2,1.9,20.5c-0.5,14.8-4.3,29-11.4,42.3h7.9h7.7h9.7h7.5h7.4c4.6-13.1,7-26.7,7.3-40.5
	c0-0.5,0.1-1.1,0.2-1.7c0-0.4,0.1-0.8,0.1-1.3l0-3.8L1241.2,565.9z"/>
<path class="st3" d="M574.7,273.5h-31.2h-9.8c-7.8,7.9-16,15.3-23.2,21.8v0c-3.5,3.2-7,6.3-10.5,9.5c-7.5,6.7-15.2,13.7-22.8,20.6
	c-16.8,15.4-30.8,30-42.9,44.5c-3.1,3.7-6.1,7.5-9,11.2c-5.1-6.4-10.6-12.8-16.3-19.1c-11.2-12.3-23.5-24.5-37.7-37.3
	c-6.4-5.8-13-11.6-19.4-17.3c-6.4-5.7-13.1-11.6-19.6-17.5c-6.6-6-12.2-11.3-17.3-16.5h-9.6h-30.9h-8.7l3.1,4.2
	c6.9,9.2,15.1,18.5,25.1,28.4c10,9.8,20.4,19,32,29.1l4.5,3.9c11.8,10.3,24,20.9,35.4,31.8c15.1,14.5,26.6,27.2,36.3,40
	c3.9,5.2,7.7,10.6,11.4,15.9c1.7,2.5,3.5,4.9,5.2,7.4c0.2,0.3,0.4,0.6,0.7,0.9l5.5,7.6l5.8-6.7l0.1-0.1c0.2-0.2,0.6-0.6,0.9-1.2
	l1-1.6c1.1-1.6,2.2-3.2,3.2-4.9c7.4-11.5,14.4-21.1,21.4-29.6c11.2-13.6,23.9-26.7,38.8-40.3c8.8-8,17.8-16,26.5-23.8
	c3.1-2.8,6.3-5.6,9.4-8.4c13.1-11.6,23.9-21.6,34.2-32.7c5.1-5.4,9.5-10.7,13.6-16l3.3-4.3H574.7z"/>
<path class="st3" d="M610.8,186.9c0-0.3-0.1-0.7-0.1-1c0-0.3-0.1-0.7-0.1-0.8c-0.4-16.6-5.1-32.7-13.9-47.9
	c-13.6-23.2-33.2-39.6-58.3-48.8c-7-2.6-14.2-4.3-21.4-5.1c-1.6-0.2-3.2-0.3-4.7-0.4c-0.9-0.1-1.8-0.1-2.7-0.2
	c-0.2,0-0.4-0.1-0.6-0.1c-0.2,0-0.5-0.1-0.7-0.1l-0.6-0.1h-6.3l-0.6,0.1c-0.3,0-0.5,0.1-0.8,0.2c-0.1,0-0.2,0-0.3,0.1
	c-29.4,1.8-54.5,14.1-74.9,36.4c-15.3-17.1-34.4-28.5-56.9-34c-6.1-1.5-12.1-2.3-17.8-2.5c-0.2,0-0.4-0.1-0.6-0.1
	c-0.3-0.1-0.6-0.1-1-0.2l-0.5-0.1h-5.8l-0.5,0.1c-0.3,0-0.5,0.1-0.8,0.1c-0.3,0.1-0.6,0.1-0.9,0.1c-0.7,0.1-1.4,0.1-2,0.1
	c-0.8,0-1.6,0.1-2.4,0.2c-7.7,0.7-15.2,2.3-22.4,4.8c-27.3,9.5-48.2,27.3-62.1,52.9c-8.6,15.8-12.7,33.2-12.2,51.7
	c0.1,3.9,0.4,7.8,0.7,11.6l0.1,1.1c0.5,6.3,1.6,12.8,3.4,20c0.8,3.3,1.7,6.5,2.8,9.7h7.4h7.4h9.7h7.6h7.8
	c-4.9-9.9-8.1-20.3-9.5-30.9c-0.7-5.6-1.1-10.7-1-15.6c0.2-14.5,3.8-27,10.9-38.1c9.5-14.8,22.6-24.2,40.1-28.8
	c6.6-1.7,13.5-2.5,20.6-2.4c15.5,0.4,28.6,4.7,40.1,13.3c9.3,6.9,16.4,15.9,21.7,27.3c3,6.5,6.1,13,9.1,19.6
	c0.2,0.4,0.4,0.8,0.6,1.2l6.6,13.2l6.6-13.2c0.2-0.5,0.4-0.8,0.6-1.2c1-2.2,2.1-4.5,3.1-6.7c2.1-4.5,4.2-8.9,6.3-13.4
	c6.2-13,14.6-22.7,25.8-29.8c7.6-4.8,16-7.9,25.2-9.4c4.8-0.8,9.2-1.1,13.5-1c17,0.4,31.1,5.4,43.3,15.1
	c12.1,9.7,19.8,22.1,23.5,37.9c1.5,6.5,2.1,13.2,1.9,20.5c-0.5,14.8-4.3,29-11.4,42.3h7.9h7.7h9.7h7.5h7.4c4.6-13.1,7-26.7,7.3-40.5
	c0-0.5,0.1-1.1,0.2-1.7c0-0.4,0.1-0.8,0.1-1.3l0-3.8L610.8,186.9z"/>
<path class="st4" d="M65.2-297H34h-9.8c-7.8,7.9-16,15.3-23.2,21.8v0c-3.5,3.2-7,6.3-10.5,9.5c-7.5,6.7-15.2,13.7-22.8,20.6
	c-16.8,15.4-30.8,30-42.9,44.5c-3.1,3.7-6.1,7.5-9,11.2c-5.1-6.4-10.6-12.8-16.3-19.1c-11.2-12.3-23.5-24.5-37.7-37.3
	c-6.4-5.8-13-11.6-19.4-17.3c-6.4-5.7-13.1-11.6-19.6-17.5c-6.6-6-12.2-11.3-17.3-16.5h-9.6h-30.9h-8.7l3.1,4.2
	c6.9,9.2,15.1,18.5,25.1,28.4c10,9.8,20.4,19,32,29.1l4.5,3.9c11.8,10.3,24,20.9,35.4,31.8c15.1,14.5,26.6,27.2,36.3,40
	c3.9,5.2,7.7,10.6,11.4,15.9c1.7,2.5,3.5,4.9,5.2,7.4c0.2,0.3,0.4,0.6,0.7,0.9l5.5,7.6l5.8-6.7l0.1-0.1c0.2-0.2,0.6-0.6,0.9-1.2
	l1-1.6c1.1-1.6,2.2-3.2,3.2-4.9c7.4-11.5,14.4-21.1,21.4-29.6c11.2-13.6,23.9-26.7,38.8-40.3c8.8-8,17.8-16,26.5-23.8
	c3.1-2.8,6.3-5.6,9.4-8.4c13.1-11.6,23.9-21.6,34.2-32.7c5.1-5.4,9.5-10.7,13.6-16L74-297H65.2z"/>
<path class="st4" d="M101.3-383.6c0-0.3-0.1-0.7-0.1-1c0-0.3-0.1-0.7-0.1-0.8c-0.4-16.6-5.1-32.7-13.9-47.9
	C73.6-456.4,54-472.8,28.8-482c-7-2.6-14.2-4.3-21.4-5.1c-1.6-0.2-3.2-0.3-4.7-0.4c-0.9-0.1-1.8-0.1-2.7-0.2c-0.2,0-0.4-0.1-0.6-0.1
	c-0.2,0-0.5-0.1-0.7-0.1l-0.6-0.1h-6.3l-0.6,0.1c-0.3,0-0.5,0.1-0.8,0.2c-0.1,0-0.2,0-0.3,0.1c-29.4,1.8-54.5,14.1-74.9,36.4
	c-15.3-17.1-34.4-28.5-56.9-34c-6.1-1.5-12.1-2.3-17.8-2.5c-0.2,0-0.4-0.1-0.6-0.1c-0.3-0.1-0.6-0.1-1-0.2l-0.5-0.1h-5.8l-0.5,0.1
	c-0.3,0-0.5,0.1-0.8,0.1c-0.3,0.1-0.6,0.1-0.9,0.1c-0.7,0.1-1.4,0.1-2,0.1c-0.8,0-1.6,0.1-2.4,0.2c-7.7,0.7-15.2,2.3-22.4,4.8
	c-27.3,9.5-48.2,27.3-62.1,52.9c-8.6,15.8-12.7,33.2-12.2,51.7c0.1,3.9,0.4,7.8,0.7,11.6l0.1,1.1c0.5,6.3,1.6,12.8,3.4,20
	c0.8,3.3,1.7,6.5,2.8,9.7h7.4h7.4h9.7h7.6h7.8c-4.9-9.9-8.1-20.3-9.5-30.9c-0.7-5.6-1.1-10.7-1-15.6c0.2-14.5,3.8-27,10.9-38.1
	c9.5-14.8,22.6-24.2,40.1-28.8c6.6-1.7,13.5-2.5,20.6-2.4c15.5,0.4,28.6,4.7,40.1,13.3c9.3,6.9,16.4,15.9,21.7,27.3
	c3,6.5,6.1,13,9.1,19.6c0.2,0.4,0.4,0.8,0.6,1.2l6.6,13.2l6.6-13.2c0.2-0.5,0.4-0.8,0.6-1.2c1-2.2,2.1-4.5,3.1-6.7
	c2.1-4.5,4.2-8.9,6.3-13.4c6.2-13,14.6-22.7,25.8-29.8c7.6-4.8,16-7.9,25.2-9.4c4.8-0.8,9.2-1.1,13.5-1c17,0.4,31.1,5.4,43.3,15.1
	c12.1,9.7,19.8,22.1,23.5,37.9c1.5,6.5,2.1,13.2,1.9,20.5c-0.5,14.8-4.3,29-11.4,42.3h7.9h7.7h9.7h7.5h7.4c4.6-13.1,7-26.7,7.3-40.5
	c0-0.5,0.1-1.1,0.2-1.7c0-0.4,0.1-0.8,0.1-1.3l0-3.8L101.3-383.6z"/>
<g>
	<path class="st4" d="M108.1-313.2C-19.6-435-147.3-169-275.1-285.5c-0.9-14.3-1.8-28.7-2.6-43C-150-206.7-22.3-472.7,105.4-356.3
		C106.3-342,107.2-327.6,108.1-313.2z"/>
</g>
<path class="st4" d="M-668.4-373.6h-31.2h-9.8c-7.8,7.9-16,15.3-23.2,21.8v0c-3.5,3.2-7,6.3-10.5,9.5c-7.5,6.7-15.2,13.7-22.8,20.6
	c-16.8,15.4-30.8,30-42.9,44.5c-3.1,3.7-6.1,7.5-9,11.2c-5.1-6.4-10.6-12.8-16.3-19.1c-11.2-12.3-23.5-24.5-37.7-37.3
	c-6.4-5.8-13-11.6-19.4-17.3c-6.4-5.7-13.1-11.6-19.6-17.5c-6.6-6-12.2-11.3-17.3-16.5h-9.6h-30.9h-8.7l3.1,4.2
	c6.9,9.2,15.1,18.5,25.1,28.4c10,9.8,20.4,19,32,29.1l4.5,3.9c11.8,10.3,24,20.9,35.4,31.8c15.1,14.5,26.6,27.2,36.3,40
	c3.9,5.2,7.7,10.6,11.4,15.9c1.7,2.5,3.5,4.9,5.2,7.4c0.2,0.3,0.4,0.6,0.7,0.9l5.5,7.6l5.8-6.7l0.1-0.1c0.2-0.2,0.6-0.6,0.9-1.2
	l1-1.6c1.1-1.6,2.2-3.2,3.2-4.9c7.4-11.5,14.4-21.1,21.4-29.6c11.2-13.6,23.9-26.7,38.8-40.3c8.8-8,17.8-16,26.5-23.8
	c3.1-2.8,6.3-5.6,9.4-8.4c13.1-11.6,23.9-21.6,34.2-32.7c5.1-5.4,9.5-10.7,13.6-16l3.3-4.3H-668.4z"/>
<path class="st4" d="M-632.3-460.2c0-0.3-0.1-0.7-0.1-1c0-0.3-0.1-0.7-0.1-0.8c-0.4-16.6-5.1-32.7-13.9-47.9
	c-13.6-23.2-33.2-39.6-58.3-48.8c-7-2.6-14.2-4.3-21.4-5.1c-1.6-0.2-3.2-0.3-4.7-0.4c-0.9-0.1-1.8-0.1-2.7-0.2
	c-0.2,0-0.4-0.1-0.6-0.1c-0.2,0-0.5-0.1-0.7-0.1l-0.6-0.1h-6.3l-0.6,0.1c-0.3,0-0.5,0.1-0.8,0.2c-0.1,0-0.2,0-0.3,0.1
	c-29.4,1.8-54.5,14.1-74.9,36.4c-15.3-17.1-34.4-28.5-56.9-34c-6.1-1.5-12.1-2.3-17.8-2.5c-0.2,0-0.4-0.1-0.6-0.1
	c-0.3-0.1-0.6-0.1-1-0.2l-0.5-0.1h-5.8l-0.5,0.1c-0.3,0-0.5,0.1-0.8,0.1c-0.3,0.1-0.6,0.1-0.9,0.1c-0.7,0.1-1.4,0.1-2,0.1
	c-0.8,0-1.6,0.1-2.4,0.2c-7.7,0.7-15.2,2.3-22.4,4.8c-27.3,9.5-48.2,27.3-62.1,52.9c-8.6,15.8-12.7,33.2-12.2,51.7
	c0.1,3.9,0.4,7.8,0.7,11.6l0.1,1.1c0.5,6.3,1.6,12.8,3.4,20c0.8,3.3,1.7,6.5,2.8,9.7h7.4h7.4h9.7h7.6h7.8
	c-4.9-9.9-8.1-20.3-9.5-30.9c-0.7-5.6-1.1-10.7-1-15.6c0.2-14.5,3.8-27,10.9-38.1c9.5-14.8,22.6-24.2,40.1-28.8
	c6.6-1.7,13.5-2.5,20.6-2.4c15.5,0.4,28.6,4.7,40.1,13.3c9.3,6.9,16.4,15.9,21.7,27.3c3,6.5,6.1,13,9.1,19.6
	c0.2,0.4,0.4,0.8,0.6,1.2l6.6,13.2l6.6-13.2c0.2-0.5,0.4-0.8,0.6-1.2c1-2.2,2.1-4.5,3.1-6.7c2.1-4.5,4.2-8.9,6.3-13.4
	c6.2-13,14.6-22.7,25.8-29.8c7.6-4.8,16-7.9,25.2-9.4c4.8-0.8,9.2-1.1,13.5-1c17,0.4,31.1,5.4,43.3,15.1
	c12.1,9.7,19.8,22.1,23.5,37.9c1.5,6.5,2.1,13.2,1.9,20.5c-0.5,14.8-4.3,29-11.4,42.3h7.9h7.7h9.7h7.5h7.4c4.6-13.1,7-26.7,7.3-40.5
	c0-0.5,0.1-1.1,0.2-1.7c0-0.4,0.1-0.8,0.1-1.3l0-3.8L-632.3-460.2z"/>
<path class="st4" d="M-626-400.7c-135.9-55.9-245.1,103.7-381,48c-1.5-11.7-3-23.5-4.4-35.2c135.9,55.9,245.1-103.7,381-48
	C-629-424.2-627.5-412.4-626-400.7z"/>
</svg>
