<?xml version="1.0" encoding="utf-8"?>
<!-- Generator: Adobe Illustrator 21.0.0, SVG Export Plug-In . SVG Version: 6.00 Build 0)  -->
<!DOCTYPE svg PUBLIC "-//W3C//DTD SVG 1.1//EN" "http://www.w3.org/Graphics/SVG/1.1/DTD/svg11.dtd">
<svg version="1.1" id="Laag_1" xmlns="http://www.w3.org/2000/svg" xmlns:xlink="http://www.w3.org/1999/xlink" x="0px" y="0px"
	 viewBox="0 0 372.4 360.4" style="enable-background:new 0 0 372.4 360.4;" xml:space="preserve">
<style type="text/css">
	.st0{fill:#EB6B56;}
</style>
<path class="st0" d="M336.2,191.1H305h-9.8c-7.8,7.9-16,15.3-23.2,21.8v0c-3.5,3.2-7,6.3-10.5,9.5c-7.5,6.7-15.2,13.7-22.8,20.6
	c-16.8,15.4-30.8,30-42.9,44.5c-3.1,3.7-6.1,7.5-9,11.2c-5.1-6.4-10.6-12.8-16.3-19.1c-11.2-12.3-23.5-24.5-37.7-37.3
	c-6.4-5.8-13-11.6-19.4-17.3c-6.4-5.7-13.1-11.6-19.6-17.5c-6.6-6-12.2-11.3-17.3-16.5H67H36.1h-8.7l3.1,4.2
	c6.9,9.2,15.1,18.5,25.1,28.4c10,9.8,20.4,19,32,29.1l4.5,3.9c11.8,10.3,24,20.9,35.4,31.8c15.1,14.5,26.6,27.2,36.3,40
	c3.9,5.2,7.7,10.6,11.4,15.9c1.7,2.5,3.5,4.9,5.2,7.4c0.2,0.3,0.4,0.6,0.7,0.9l5.5,7.6l5.8-6.7l0.1-0.1c0.2-0.2,0.6-0.6,0.9-1.2
	l1-1.6c1.1-1.6,2.2-3.2,3.2-4.9c7.4-11.5,14.4-21.1,21.4-29.6c11.2-13.6,23.9-26.7,38.8-40.3c8.8-8,17.8-16,26.5-23.8
	c3.1-2.8,6.3-5.6,9.4-8.4c13.1-11.6,23.9-21.6,34.2-32.7c5.1-5.4,9.5-10.7,13.6-16l3.3-4.3H336.2z"/>
<path class="st0" d="M372.3,104.5c0-0.3-0.1-0.7-0.1-1c0-0.3-0.1-0.7-0.1-0.8c-0.4-16.6-5.1-32.7-13.9-47.9
	C344.6,31.7,325,15.2,299.9,6.1c-7-2.6-14.2-4.3-21.4-5.1c-1.6-0.2-3.2-0.3-4.7-0.4c-0.9-0.1-1.8-0.1-2.7-0.2
	c-0.2,0-0.4-0.1-0.6-0.1c-0.2,0-0.5-0.1-0.7-0.1L269.1,0h-6.3l-0.6,0.1c-0.3,0-0.5,0.1-0.8,0.2c-0.1,0-0.2,0-0.3,0.1
	c-29.4,1.8-54.5,14.1-74.9,36.4c-15.3-17.1-34.4-28.5-56.9-34c-6.1-1.5-12.1-2.3-17.8-2.5c-0.2,0-0.4-0.1-0.6-0.1
	c-0.3-0.1-0.6-0.1-1-0.2L109.4,0h-5.8l-0.5,0.1c-0.3,0-0.5,0.1-0.8,0.1c-0.3,0.1-0.6,0.1-0.9,0.1c-0.7,0.1-1.4,0.1-2,0.1
	c-0.8,0-1.6,0.1-2.4,0.2c-7.7,0.7-15.2,2.3-22.4,4.8C47,14.9,26.1,32.7,12.3,58.3C3.7,74.2-0.4,91.5,0,110c0.1,3.9,0.4,7.8,0.7,11.6
	l0.1,1.1c0.5,6.3,1.6,12.8,3.4,20c0.8,3.3,1.7,6.5,2.8,9.7h7.4h7.4h9.7h7.6h7.8c-4.9-9.9-8.1-20.3-9.5-30.9
	c-0.7-5.6-1.1-10.7-1-15.6c0.2-14.5,3.8-27,10.9-38.1C56.8,53,69.9,43.5,87.4,38.9c6.6-1.7,13.5-2.5,20.6-2.4
	c15.5,0.4,28.6,4.7,40.1,13.3c9.3,6.9,16.4,15.9,21.7,27.3c3,6.5,6.1,13,9.1,19.6c0.2,0.4,0.4,0.8,0.6,1.2l6.6,13.2l6.6-13.2
	c0.2-0.5,0.4-0.8,0.6-1.2c1-2.2,2.1-4.5,3.1-6.7c2.1-4.5,4.2-8.9,6.3-13.4c6.2-13,14.6-22.7,25.8-29.8c7.6-4.8,16-7.9,25.2-9.4
	c4.8-0.8,9.2-1.1,13.5-1c17,0.4,31.1,5.4,43.3,15.1c12.1,9.7,19.8,22.1,23.5,37.9c1.5,6.5,2.1,13.2,1.9,20.5
	c-0.5,14.8-4.3,29-11.4,42.3h7.9h7.7h9.7h7.5h7.4c4.6-13.1,7-26.7,7.3-40.5c0-0.5,0.1-1.1,0.2-1.7c0-0.4,0.1-0.8,0.1-1.3l0-3.8
	L372.3,104.5z"/>
</svg>
